<svg width="200" height="200" viewBox="0 0 200 200" fill="none" xmlns="http://www.w3.org/2000/svg">
<rect width="200" height="200" fill="white"/>
<path fill-rule="evenodd" clip-rule="evenodd" d="M140.353 88.3827V80.0358H148.707V88.3852H140.353V88.3827Z" fill="#39B4C0"/>
<path d="M154.602 105.462C154.602 101.109 155.97 97.6308 158.705 95.0188C161.438 92.4068 164.825 91.097 168.865 91.097C172.906 91.097 176.278 92.4017 178.998 95.0188C181.718 97.6308 183.074 101.114 183.074 105.462C183.074 109.809 181.723 113.32 179.021 115.982C176.318 118.647 172.951 119.977 168.91 119.977C164.87 119.977 161.481 118.644 158.728 115.982C155.977 113.318 154.602 109.809 154.602 105.462ZM174.572 105.512C174.572 103.218 174.003 101.472 172.863 100.275C171.724 99.0758 170.371 98.5749 168.81 98.5749C167.25 98.5749 165.902 99.0808 164.78 100.275C163.658 101.47 163.094 103.218 163.094 105.512C163.094 107.806 163.673 109.559 164.83 110.771C165.985 111.983 167.345 112.491 168.905 112.491C170.466 112.491 171.804 111.983 172.908 110.771C174.013 109.559 174.569 107.806 174.569 105.512H174.574H174.572Z" fill="#352366"/>
<path d="M148.706 91.1051H140.352V119.975H148.706V91.1051Z" fill="#352366"/>
<path fill-rule="evenodd" clip-rule="evenodd" d="M107.895 88.3827V80.0358H116.249V88.3852H107.895V88.3827Z" fill="#ED3287"/>
<path d="M116.249 91.1051H107.895V119.975H116.249V91.1051Z" fill="#352366"/>
<path d="M132.319 80.0358H123.967V119.997H132.319V80.0358Z" fill="#352366"/>
<path d="M76.3009 105.515C76.3009 101.133 77.5634 97.6342 80.0859 95.0171C82.6084 92.4051 85.8749 91.0954 89.8778 91.0954C93.1969 91.0954 96.015 91.9443 98.3246 93.6498C100.637 95.3527 102.167 97.7919 102.914 100.957H93.8808C93.0967 99.272 91.8217 98.5833 90.0457 98.5833C88.2696 98.5833 86.9545 99.0791 86.0903 100.376C85.2261 101.674 84.7978 103.387 84.7978 105.51C84.7978 107.634 85.2261 109.347 86.0903 110.644C86.9545 111.941 88.2145 112.492 89.8753 112.492C90.9174 112.492 91.7315 112.405 92.3177 112.034C92.9038 111.663 93.4224 111.005 93.8783 110.061H102.911C102.165 113.098 100.617 115.507 98.272 117.293C95.9273 119.081 93.1268 119.973 89.8703 119.973C85.8674 119.973 82.6009 118.658 80.0784 116.028C77.5559 113.399 76.2934 109.893 76.2934 105.508L76.2984 105.513L76.3009 105.515Z" fill="#352366"/>
<path d="M42.4952 105.57C42.4952 101.358 43.6975 97.8893 46.1098 95.1747C48.5221 92.46 51.4554 91.1051 54.9223 91.1051C58.3892 91.1051 61.052 92.4374 62.9082 95.0995V91.1051H71.2597V119.985H62.9082V115.535C60.8917 118.505 58.1888 119.985 54.8021 119.985C51.4154 119.985 48.5171 118.635 46.1098 115.938C43.6975 113.241 42.4952 109.782 42.4952 105.57ZM62.9032 105.517C62.9032 103.291 62.2995 101.581 61.0946 100.384C59.8922 99.1841 58.5044 98.5906 56.9438 98.5906C55.3832 98.5906 53.9955 99.1991 52.7931 100.411C51.5907 101.623 50.9845 103.346 50.9845 105.573C50.9845 107.799 51.5882 109.509 52.7931 110.706C53.9955 111.906 55.3832 112.5 56.9438 112.5C58.5044 112.5 59.8922 111.891 61.0946 110.679C62.297 109.467 62.9032 107.744 62.9032 105.517Z" fill="#352366"/>
<path d="M39.8841 80C39.5009 80 39.1226 80.0075 38.7519 80.025H39.8841V80Z" fill="#352366"/>
<path d="M38.8024 88.2324H39.9648V80.0358H38.2438C32.6953 80.0358 28.1964 84.5336 28.1964 90.0806V91.1174H25V98.5928H28.0661V120H36.4177V98.5928H39.8846V91.1174H36.4753V90.559C36.4753 89.2742 37.5174 88.2324 38.8024 88.2324Z" fill="#352366"/>
</svg>
