<svg width="220" height="200" viewBox="0 0 220 200" fill="none" xmlns="http://www.w3.org/2000/svg">
<rect width="220" height="200" fill="white"/>
<path d="M58.6 81C53.6 81 51.8 84.5 51.8 87.8V89.8H50.8C50 89.8 49.4 90.4 49.4 91.2C49.4 92 50 92.6 50.8 92.6H51.8V106.4C51.8 107.2 52.4 107.9 53.3 107.9C54.2 107.9 54.8 107.3 54.8 106.4V92.5H58C58.8 92.5 59.4 91.9 59.4 91.1C59.4 90.3 58.8 89.7 58 89.7H54.8V87.7C54.8 85.9 55.5 83.7 58.7 83.7C59.5 83.7 60.1 83.1 60.1 82.4C60 81.6 59.4 81 58.6 81ZM70 89.3C68 89.2 66.2 90.1 65 91.7V90.9C65 90.1 64.4 89.4 63.5 89.4C62.6 89.4 62 90.1 62 90.9V106.3C62 107.1 62.6 107.8 63.5 107.8C64.4 107.8 65 107.2 65 106.3V97.8C65 94.2 66.9 92.1 70 92.1C70.8 92.1 71.4 91.5 71.4 90.7C71.4 89.9 70.7 89.3 70 89.3ZM87.7 96.9C87.7 95.2 87.2 93.5 86.3 92.1C84.9 90.2 82.6 89.1 80.2 89.3C75.1 89.3 72.2 92.7 72.2 98.6C72.2 104.7 75.1 108 80.6 108C82.8 108.1 85 107.3 86.7 105.8C87 105.6 87.2 105.2 87.2 104.8C87.2 104.1 86.6 103.5 85.9 103.5C85.6 103.5 85.3 103.6 85.1 103.8C83.9 104.8 82.3 105.4 80.7 105.4C77.4 105.4 75.3 103.2 75.2 99.7H86C87.7 99.5 87.7 97.9 87.7 96.9ZM80.3 91.9C83.3 91.9 84.8 93.6 84.9 96.9H75.2C75.5 93.7 77.3 91.9 80.3 91.9ZM97.5 97.1C95.3 96.3 93.5 95.7 93.5 94.1C93.5 92.3 95.5 92.1 96.6 92.1C98.1 92 99.6 92.6 100.6 93.6C101.1 94.1 102 94.1 102.5 93.6C102.8 93.3 102.9 93 102.9 92.6C102.9 92.3 102.8 92 102.6 91.7C101.1 90 98.9 89 96.7 89.2C93 89.2 90.7 91.1 90.7 94C90.7 97.6 93.9 98.7 96.7 99.7C98.8 100.4 100.7 101 100.7 102.6C100.7 104.7 98.3 105.1 96.9 105.1C95.2 105.2 93.5 104.5 92.3 103.3C92 103 91.7 102.9 91.3 102.8C90.6 102.8 90 103.4 90 104.1C90 104.4 90.1 104.7 90.3 105C92 107 94.4 108 96.9 108C101.1 108 103.6 106 103.6 102.8C103.4 99.1 100.3 98.1 97.5 97.1ZM114.8 89.2C113 89.1 111.2 89.9 110 91.3V81.5C110 80.7 109.4 80 108.5 80C107.7 80 107.1 80.6 107.1 81.5V106.3C107.1 107.1 107.7 107.8 108.5 107.8C109.3 107.8 110 107.2 110 106.3V97C110 93.6 111.6 91.9 114.8 91.9C118 91.9 119.1 93.3 119.1 96.7V106.3C119.1 107.1 119.7 107.8 120.6 107.8C121.4 107.8 122 107.2 122 106.3V96.2C122 91.6 119.6 89.2 114.8 89.2ZM146.2 89.5C145.6 89.5 145 89.9 144.8 90.5L140.6 102.3L137.2 90.5C136.9 89.7 136.1 89.4 135.3 89.6C134.9 89.7 134.6 90.1 134.4 90.5L131 102.3L127 90.4C126.8 89.8 126.3 89.4 125.6 89.5C124.8 89.5 124.2 90.1 124.2 90.9C124.2 91.1 124.2 91.3 124.3 91.5L129.9 106.8C130.1 107.4 130.6 107.8 131.3 107.8C131.9 107.8 132.5 107.4 132.7 106.8L136 95.6L139.3 106.8C139.5 107.4 140.1 107.8 140.7 107.8C141.3 107.8 141.9 107.4 142.1 106.8L147.7 91.5C147.8 91.3 147.8 91.1 147.8 90.9C147.6 90.1 147 89.5 146.2 89.5ZM156.8 89.2C151.5 89.2 148.6 92.5 148.6 98.5C148.6 104.5 151.5 107.9 156.8 107.9C162.1 107.9 165 104.6 165 98.5C165 92.4 162.1 89.2 156.8 89.2ZM156.8 105.2C153.3 105.2 151.5 103 151.5 98.5C151.5 94 153.3 91.8 156.8 91.8C160.3 91.8 162 94.1 162 98.5C162 102.9 160.3 105.3 156.8 105.2ZM176.2 89.3C174.2 89.2 172.4 90.1 171.2 91.7V90.9C171.2 90.1 170.6 89.4 169.8 89.4C169 89.4 168.3 90 168.3 90.8V106.2C168.3 107 168.9 107.7 169.7 107.7C170.5 107.7 171.2 107.1 171.2 106.3V97.8C171.2 94.2 173.1 92.1 176.2 92.1C177 92.1 177.6 91.5 177.6 90.7C177.6 89.9 177 89.3 176.2 89.3ZM187.3 96.9L193.3 92.1C193.7 91.8 193.9 91.4 193.9 90.9C193.9 90.1 193.3 89.5 192.5 89.5C192.1 89.5 191.8 89.6 191.5 89.9L182.9 96.9V81.5C182.9 80.7 182.3 80 181.5 80C180.7 80 180 80.6 180 81.4V106.2C180 107 180.6 107.7 181.4 107.7C182.2 107.7 182.9 107.1 182.9 106.3V100.3L184.9 98.7L191.5 107.1C191.8 107.5 192.3 107.8 192.7 107.8C193.5 107.8 194.1 107.2 194.1 106.4C194.1 106.1 194 105.7 193.8 105.5L187.3 96.9ZM203.7 97.1C201.5 96.3 199.7 95.7 199.7 94.1C199.7 92.3 201.7 92.1 202.8 92.1C204.3 92 205.8 92.6 206.8 93.6C207.1 93.9 207.4 94 207.8 94C208.5 93.9 209 93.3 209 92.6C209 92.3 208.9 92 208.7 91.7C207.2 90 205 89 202.8 89.2C199.1 89.2 196.8 91.1 196.8 94C196.8 97.6 200 98.7 202.8 99.7C204.9 100.4 206.8 101 206.8 102.6C206.8 104.7 204.4 105.1 203 105.1C201.3 105.2 199.6 104.5 198.4 103.3C198.1 103 197.8 102.9 197.4 102.8C196.7 102.8 196.1 103.4 196.1 104.1C196.1 104.4 196.2 104.7 196.4 105C198.1 106.9 200.5 107.9 203.1 107.8C207.3 107.8 209.8 105.8 209.8 102.6C209.6 99.1 206.5 98.1 203.7 97.1Z" fill="#4D4D4D"/>
<path d="M10.2 105.5C10.7 109.1 12.4 112.4 15 115L20.8 109.2C20.8 103.1 24 97.5 29.3 94.4L10.2 105.5Z" fill="#9B65C3"/>
<path d="M20.8 109.2C17.8 109.2 14.9 108.4 12.3 106.9C11.6 106.5 10.9 106 10.2 105.5C10.7 109.1 12.4 112.4 15 115L20.8 109.2Z" fill="#9B65C3"/>
<path d="M20.8 109.2L15 115C17.6 117.6 20.9 119.3 24.5 119.8L35.5 100.7C32.5 105.9 26.9 109.2 20.8 109.2Z" fill="#BE63C5"/>
<path d="M23.1 117.7C21.6 115.1 20.8 112.2 20.8 109.2L15 115C17.6 117.6 20.9 119.3 24.5 119.8C24 119.1 23.5 118.4 23.1 117.7Z" fill="#BF63C6"/>
<path d="M42.5 86.8L29.3 94.4C24 97.4 17.6 97.4 12.3 94.4C10.8 97 10 100 10 103C10 103.8 10.1 104.7 10.2 105.5C10.9 106 11.6 106.5 12.3 106.9C14.9 108.4 17.8 109.2 20.8 109.2L42.8 87.2C42.7 87.1 42.6 87 42.5 86.8Z" fill="#3278B1"/>
<path d="M12.3 106.9C14.9 108.4 17.8 109.2 20.8 109.2C20.8 103.1 24 97.5 29.3 94.4L10.2 105.4C10.9 106 11.6 106.5 12.3 106.9Z" fill="#3278B2"/>
<path d="M12.3 94.4C10.8 97 10 100 10 103C10 103.8 10.1 104.7 10.2 105.5L29.3 94.4C24.1 97.5 17.6 97.5 12.3 94.4Z" fill="#45A4EC"/>
<path d="M42.8 87.2C42.5 86.9 42.3 86.7 42 86.5C41.4 86.1 40.6 85.9 39.9 85.9H27C20.9 85.9 15.3 89.2 12.3 94.4C17.6 97.4 24 97.4 29.3 94.4C24 97.4 20.8 103.1 20.8 109.2C26.9 109.2 32.5 106 35.6 100.7L43.2 87.5C43 87.4 42.9 87.3 42.8 87.2Z" fill="#19BB7D"/>
<path d="M29.3 94.4L42.5 86.8C42.3 86.7 42.2 86.5 42 86.4L12.3 94.4C17.6 97.5 24.1 97.5 29.3 94.4Z" fill="#08C7FB"/>
<path d="M39.8 85.9H27C20.9 85.9 15.3 89.2 12.3 94.4L42 86.4C41.3 86.1 40.6 85.9 39.8 85.9Z" fill="#59F2F6"/>
<path d="M35.6 100.7L43.2 87.5C43.1 87.4 43 87.3 42.9 87.1L20.9 109.1C20.9 112.1 21.7 115 23.2 117.6C23.6 118.3 24.1 119 24.6 119.7C25.4 119.8 26.2 119.9 27 119.9C30 119.9 32.9 119.1 35.5 117.6C32.5 112.4 32.5 105.9 35.6 100.7Z" fill="#DA3757"/>
<path d="M20.8 109.2C20.8 112.2 21.6 115.1 23.1 117.7C23.5 118.4 24 119.1 24.5 119.8L35.5 100.7C32.5 105.9 26.9 109.2 20.8 109.2Z" fill="#D33C4E"/>
<path d="M35.6 100.7L24.6 119.8C25.4 119.9 26.2 120 27.1 120C30.1 120 33 119.2 35.6 117.7C32.5 112.4 32.5 105.9 35.6 100.7Z" fill="#EE5A24"/>
<path d="M43.5 88C43.2 87.5 42.9 87.1 42.5 86.8L29.3 94.4C24 97.4 20.8 103.1 20.8 109.2C26.9 109.2 32.5 106 35.6 100.7C32.6 106 32.6 112.4 35.6 117.7C40.8 114.7 44.1 109.1 44.1 103.1V90.2C44.1 89.4 43.9 88.7 43.5 88Z" fill="#8BDF55"/>
<path d="M42.5 86.8L29.3 94.4C24 97.4 20.8 103.1 20.8 109.2L42.8 87.2C42.7 87.1 42.6 86.9 42.5 86.8Z" fill="#25C16F"/>
<path d="M20.8 109.2C26.9 109.2 32.5 106 35.6 100.7L43.2 87.5C43.1 87.4 43 87.3 42.9 87.1L20.8 109.2Z" fill="#8BDF55"/>
<path d="M43.2 87.5L35.6 100.7C32.6 106 32.6 112.4 35.6 117.7L43.6 88C43.4 87.8 43.3 87.7 43.2 87.5Z" fill="#FFBB00"/>
<path d="M35.6 117.7C40.9 114.7 44.1 109.1 44.1 103V90.2C44.1 89.4 43.9 88.7 43.5 88L35.6 117.7Z" fill="#FFA800"/>
</svg>
