<svg width="220" height="200" viewBox="0 0 220 200" fill="none" xmlns="http://www.w3.org/2000/svg">
<rect width="220" height="200" fill="white"/>
<path fill-rule="evenodd" clip-rule="evenodd" d="M26.1402 82.6L27.2708 86.2328C29.9802 94.9382 25.1486 104.207 16.4719 106.929L12.8526 108.064L10.5905 100.799L14.2098 99.6636C18.8856 98.197 21.4936 93.1989 20.0319 88.5023L18.9013 84.8696L26.1402 82.6Z" fill="url(#paint0_linear_3_17)"/>
<path fill-rule="evenodd" clip-rule="evenodd" d="M42.0058 90.9408L38.3862 92.0756C29.7128 94.7949 24.8707 104.059 27.5822 112.767L28.7132 116.4L35.9519 114.13L34.8208 110.497C33.3599 105.805 35.9689 100.808 40.6475 99.3411L44.267 98.2064L42.0058 90.9408Z" fill="url(#paint1_linear_3_17)"/>
<path fill-rule="evenodd" clip-rule="evenodd" d="M44.267 98.2061L12.8525 108.059L10.5905 100.794L42.0052 90.9409L44.267 98.2061Z" fill="url(#paint2_linear_3_17)"/>
<path d="M202.248 112.584C199.16 112.584 196.669 111.528 194.668 109.379L197.862 106.456C199.195 107.971 200.599 108.71 202.143 108.71C203.757 108.71 204.67 107.9 204.67 106.808C204.67 105.857 204.213 105.329 201.336 104.66C196.458 103.498 195.721 101.279 195.721 98.954C195.721 95.7489 198.248 93.3539 202.529 93.3539C205.477 93.3539 207.442 94.0936 209.302 96.5238L205.863 99.1653C204.985 97.7565 203.862 97.193 202.634 97.193C201.336 97.193 200.353 97.6861 200.353 98.8131C200.353 99.4471 200.634 100.011 202.81 100.574C208.108 101.948 209.337 103.92 209.337 106.667C209.337 110.049 206.284 112.584 202.248 112.584Z" fill="black"/>
<path d="M184.194 112.585C180.931 112.585 179.282 111.211 178.299 109.133V112.127H173.702V86.4154H178.439V96.6295C179.422 94.6923 181.071 93.4244 184.194 93.4244C189.213 93.4244 193.213 97.7565 193.213 103.04C193.213 108.323 189.213 112.585 184.194 112.585ZM178.299 103.04C178.299 105.893 180.299 108.288 183.423 108.288C186.44 108.288 188.476 105.787 188.476 103.004C188.476 100.152 186.44 97.7213 183.423 97.7213C180.299 97.7213 178.299 100.187 178.299 103.04Z" fill="black"/>
<path d="M159.342 112.585C154.324 112.585 150.324 108.323 150.324 103.04C150.324 97.7565 154.324 93.4244 159.342 93.4244C162.501 93.4244 164.15 94.7275 165.132 96.6999V93.8118H169.834V112.127H165.238V109.133C164.255 111.211 162.606 112.585 159.342 112.585ZM155.061 103.004C155.061 105.787 157.096 108.288 160.114 108.288C163.238 108.288 165.238 105.893 165.238 103.04C165.238 100.187 163.238 97.7213 160.114 97.7213C157.096 97.7213 155.061 100.152 155.061 103.004Z" fill="black"/>
<path d="M142.433 112.127V86.4154H147.171V112.127H142.433Z" fill="black"/>
<path d="M130.037 112.584C124.387 112.584 120.597 108.288 120.597 103.004C120.597 97.7213 124.562 93.3539 130.037 93.3539C135.511 93.3539 139.301 97.7213 139.301 103.004C139.301 103.533 139.266 104.096 139.161 104.695H125.51C126.036 106.844 127.651 108.358 130.037 108.358C132.072 108.358 133.651 107.301 134.493 105.893L138.178 108.675C136.704 110.964 133.651 112.584 130.037 112.584ZM125.51 101.138H134.529C134.002 99.0949 132.283 97.4395 129.966 97.4395C127.72 97.4395 126.036 98.954 125.51 101.138Z" fill="black"/>
<path d="M108.18 112.127L100.565 93.8118H106.179L109.829 104.272C110.144 105.153 110.425 106.245 110.601 107.196C110.776 106.245 111.057 105.153 111.373 104.272L115.022 93.8118H120.532L112.952 112.127H108.18Z" fill="black"/>
<path d="M93.9025 112.127V93.8118H98.6398V112.127H93.9025ZM93.4112 89.4797C93.4112 87.9652 94.6395 86.6972 96.2536 86.6972C97.9031 86.6972 99.096 87.9652 99.096 89.4797C99.096 91.0646 97.9031 92.2973 96.2536 92.2973C94.6395 92.2973 93.4112 91.0294 93.4112 89.4797Z" fill="black"/>
<path d="M81.0268 112.127V93.8118H85.6239V97.2987C86.2554 94.6571 88.1153 93.2131 91.2738 93.3892V97.8622H90.6071C87.8699 97.8622 85.7642 99.6937 85.7642 102.758V112.127H81.0268Z" fill="black"/>
<path d="M75.3728 112.127C71.7581 112.127 69.7932 110.436 69.7932 106.456V97.8622H67.2312V93.8118H69.7932V90.1136L74.5305 89.6205V93.8118H78.3907V97.8622H74.5305V106.21C74.5305 107.372 75.092 107.9 76.0042 107.9H77.9694V112.127H75.3728Z" fill="black"/>
<path d="M58.7805 112.584C55.6923 112.584 53.2006 111.528 51.2004 109.379L54.3938 106.456C55.7273 107.971 57.131 108.71 58.6749 108.71C60.2891 108.71 61.2016 107.9 61.2016 106.808C61.2016 105.857 60.7453 105.329 57.868 104.66C52.9901 103.498 52.2531 101.279 52.2531 98.954C52.2531 95.7489 54.7798 93.3539 59.0609 93.3539C62.0088 93.3539 63.974 94.0936 65.8337 96.5238L62.3948 99.1653C61.5176 97.7565 60.3946 97.193 59.1664 97.193C57.868 97.193 56.8852 97.6861 56.8852 98.8131C56.8852 99.4471 57.1659 100.011 59.3416 100.574C64.6408 101.948 65.869 103.92 65.869 106.667C65.869 110.049 62.8158 112.584 58.7805 112.584Z" fill="black"/>
<defs>
<linearGradient id="paint0_linear_3_17" x1="17.0666" y1="67.4875" x2="28.3407" y2="101.966" gradientUnits="userSpaceOnUse">
<stop stop-color="#F9DBCF"/>
<stop offset="0.333333" stop-color="#F6A509"/>
<stop offset="0.666667" stop-color="#F34D13"/>
<stop offset="1" stop-color="#7A03BD"/>
</linearGradient>
<linearGradient id="paint1_linear_3_17" x1="36.7734" y1="131.042" x2="27.901" y2="96.1024" gradientUnits="userSpaceOnUse">
<stop stop-color="#F9DBCF"/>
<stop offset="0.333333" stop-color="#F6A509"/>
<stop offset="0.666667" stop-color="#F34D13"/>
<stop offset="1" stop-color="#7A03BD"/>
</linearGradient>
<linearGradient id="paint2_linear_3_17" x1="8.83884" y1="109.289" x2="49.5781" y2="91.4491" gradientUnits="userSpaceOnUse">
<stop stop-color="#7A03BD"/>
<stop offset="0.333333" stop-color="#F34D13"/>
<stop offset="0.666667" stop-color="#F6A509"/>
<stop offset="1" stop-color="#F9DBCF"/>
</linearGradient>
</defs>
</svg>
