<svg width="200" height="200" viewBox="0 0 200 200" fill="none" xmlns="http://www.w3.org/2000/svg">
<rect width="200" height="200" fill="white"/>
<path d="M88.82 126.976C87.42 126.976 86.02 126.676 84.72 126.076L55.92 113.276C50.72 110.976 48.42 104.976 50.72 99.776L63.52 71.076C65.82 65.976 71.82 63.576 77.02 65.876L105.82 78.676C110.92 80.976 113.32 86.976 111.02 92.176L98.12 120.976C96.42 124.776 92.72 126.976 88.82 126.976ZM87.02 120.676C89.22 121.676 91.72 120.676 92.72 118.476L105.52 89.676C106.52 87.476 105.52 84.976 103.32 83.976L74.62 71.276C72.42 70.276 69.92 71.276 68.92 73.476L56.12 102.176C55.12 104.376 56.12 106.876 58.32 107.876L87.02 120.676Z" fill="#089949"/>
<path d="M179.02 126.976H147.52C141.92 126.976 137.32 122.376 137.32 116.776V85.276C137.32 79.676 141.92 75.076 147.52 75.076H179.02C184.62 75.076 189.22 79.676 189.22 85.276V116.776C189.22 122.376 184.62 126.976 179.02 126.976ZM147.52 80.976C145.12 80.976 143.22 82.876 143.22 85.276V116.776C143.22 119.176 145.12 121.076 147.52 121.076H179.02C181.42 121.076 183.32 119.176 183.32 116.776V85.276C183.32 82.876 181.42 80.976 179.02 80.976H147.52Z" fill="#F9B21D"/>
<path d="M61.02 91.076L56.82 100.576C56.72 100.676 56.72 100.776 56.62 100.876L58.32 111.076C58.72 113.476 57.12 115.676 54.72 115.976L23.62 120.976C22.52 121.176 21.32 120.876 20.42 120.176C19.52 119.476 18.92 118.476 18.72 117.376L13.72 86.276C13.52 85.176 13.82 83.976 14.52 83.076C15.22 82.176 16.22 81.576 17.32 81.376L48.42 76.376C48.62 76.376 48.92 76.276 49.12 76.276C51.22 76.276 53.02 77.776 53.42 79.876L55.12 90.176L59.52 80.376L59.32 78.976C58.42 73.376 53.22 69.576 47.62 70.476L16.52 75.476C13.82 75.876 11.42 77.376 9.92 79.576C8.32 81.776 7.72 84.476 8.12 87.176L13.12 118.276C13.52 120.976 15.02 123.376 17.22 124.976C18.92 126.276 21.02 126.876 23.22 126.876C23.72 126.876 24.32 126.876 24.92 126.776L56.02 121.776C61.62 120.876 65.42 115.676 64.52 110.076L61.02 91.076Z" fill="#E42527"/>
<path d="M98.32 105.876L102.92 95.676L101.62 86.176C101.42 85.076 101.72 83.876 102.42 82.976C103.12 82.076 104.12 81.476 105.32 81.276L136.52 77.076C136.72 77.076 136.92 77.076 137.12 77.076C138.02 77.076 138.92 77.376 139.72 77.976C139.82 78.076 140.02 78.176 140.12 78.276C141.52 76.776 143.32 75.776 145.32 75.376C144.72 74.576 144.02 73.876 143.22 73.276C141.02 71.576 138.32 70.876 135.62 71.276L104.32 75.476C101.62 75.876 99.22 77.276 97.62 79.376C95.92 81.576 95.22 84.276 95.62 86.976L98.32 105.876Z" fill="#226DB4"/>
<path d="M151.52 111.176L147.42 80.976C145.12 81.076 143.22 82.976 143.22 85.276V94.176L145.62 111.976C145.82 113.076 145.52 114.276 144.82 115.176C144.12 116.076 143.12 116.676 141.92 116.876L110.72 121.076C109.62 121.276 108.42 120.976 107.52 120.276C106.62 119.576 106.02 118.576 105.82 117.376L104.42 106.776L99.92 116.976L100.12 118.176C100.52 120.876 101.92 123.276 104.02 124.876C105.82 126.276 107.92 126.976 110.22 126.976C110.72 126.976 111.12 126.976 111.62 126.876L142.82 122.676C145.52 122.276 147.92 120.876 149.52 118.776C151.12 116.576 151.82 113.876 151.52 111.176Z" fill="#226DB4"/>
<path d="M63.42 141.976L67.92 135.376H64.22C64.02 135.376 63.82 135.176 63.82 134.976V134.076C63.82 133.876 64.02 133.676 64.22 133.676H70.22C70.42 133.676 70.62 133.876 70.62 134.076V134.376C70.62 134.476 70.62 134.476 70.52 134.576L66.12 141.176H70.02C70.22 141.176 70.42 141.376 70.42 141.576V142.476C70.42 142.676 70.22 142.876 70.02 142.876H63.72C63.52 142.876 63.32 142.676 63.32 142.476V142.176C63.32 142.076 63.42 141.976 63.42 141.976Z" fill="black"/>
<path d="M82.22 138.276C82.22 135.576 84.22 133.676 86.92 133.676C89.72 133.676 91.62 135.576 91.62 138.376C91.62 141.176 89.72 143.076 86.92 143.076C84.02 142.976 82.22 141.076 82.22 138.276ZM89.42 138.276C89.42 136.676 88.62 135.276 86.82 135.276C85.02 135.276 84.32 136.776 84.32 138.376C84.32 139.976 85.12 141.376 86.92 141.376C88.72 141.376 89.42 139.776 89.42 138.276Z" fill="black"/>
<path d="M104.32 133.776H105.62C105.82 133.776 106.02 133.976 106.02 134.176V137.476H109.82V134.176C109.82 133.976 110.02 133.776 110.22 133.776H111.52C111.72 133.776 111.92 133.976 111.92 134.176V142.576C111.92 142.776 111.72 142.976 111.52 142.976H110.22C110.02 142.976 109.82 142.776 109.82 142.576V139.176H106.02V142.576C106.02 142.776 105.82 142.976 105.62 142.976H104.32C104.12 142.976 103.92 142.776 103.92 142.576V134.176C103.92 133.876 104.12 133.776 104.32 133.776Z" fill="black"/>
<path d="M124.22 138.276C124.22 135.576 126.22 133.676 128.92 133.676C131.72 133.676 133.62 135.576 133.62 138.376C133.62 141.176 131.72 143.076 128.92 143.076C126.12 142.976 124.22 141.076 124.22 138.276ZM131.42 138.276C131.42 136.676 130.62 135.276 128.82 135.276C127.02 135.276 126.32 136.776 126.32 138.376C126.32 139.976 127.12 141.376 128.92 141.376C130.72 141.376 131.42 139.776 131.42 138.276Z" fill="black"/>
</svg>
